<svg width="34" height="34" viewBox="0 0 34 34" fill="none" xmlns="http://www.w3.org/2000/svg">
<path d="M9.07323 13.3134H9.34692C10.4006 13.3134 11.2627 14.1755 11.2627 15.2291V24.808C11.2627 25.8616 10.4006 26.7237 9.34692 26.7237H9.07323C8.01956 26.7237 7.15747 25.8616 7.15747 24.808V15.2291C7.15747 14.1755 8.01956 13.3134 9.07323 13.3134ZM16.7363 7.56609C17.79 7.56609 18.6521 8.42818 18.6521 9.48185V24.808C18.6521 25.8616 17.79 26.7237 16.7363 26.7237C15.6826 26.7237 14.8205 25.8616 14.8205 24.808V9.48185C14.8205 8.42818 15.6826 7.56609 16.7363 7.56609ZM24.3993 18.5133C25.453 18.5133 26.3151 19.3754 26.3151 20.4291V24.808C26.3151 25.8616 25.453 26.7237 24.3993 26.7237C23.3457 26.7237 22.4836 25.8616 22.4836 24.808V20.4291C22.4836 19.3754 23.3457 18.5133 24.3993 18.5133Z" fill="#4318FF"/>
</svg>
