<svg width="25" height="24" viewBox="0 0 25 24" fill="none" xmlns="http://www.w3.org/2000/svg">
<path d="M22.7891 9.00002H17.9991L13.6191 2.44002C13.4291 2.16002 13.1091 2.02002 12.7891 2.02002C12.4691 2.02002 12.1491 2.16002 11.9591 2.45002L7.57906 9.00002H2.78906C2.23906 9.00002 1.78906 9.45002 1.78906 10C1.78906 10.09 1.79906 10.18 1.82906 10.27L4.36906 19.54C4.59906 20.38 5.36906 21 6.28906 21H19.2891C20.2091 21 20.9791 20.38 21.2191 19.54L23.7591 10.27L23.7891 10C23.7891 9.45002 23.3391 9.00002 22.7891 9.00002ZM12.7891 4.80002L15.5891 9.00002H9.98906L12.7891 4.80002ZM19.2891 19L6.29906 19.01L4.09906 11H21.4891L19.2891 19ZM12.7891 13C11.6891 13 10.7891 13.9 10.7891 15C10.7891 16.1 11.6891 17 12.7891 17C13.8891 17 14.7891 16.1 14.7891 15C14.7891 13.9 13.8891 13 12.7891 13Z" fill="#01B574"/>
</svg>
