<svg width="29" height="28" viewBox="0 0 29 28" fill="none" xmlns="http://www.w3.org/2000/svg">
<path fill-rule="evenodd" clip-rule="evenodd" d="M20.2373 15.3183C21.8356 16.4033 22.9556 17.8733 22.9556 19.8333V23.3333H26.4556C27.0973 23.3333 27.6223 22.8083 27.6223 22.1667V19.8333C27.6223 17.29 23.4573 15.785 20.2373 15.3183Z" fill="white"/>
<path d="M11.2887 13.9998C13.8661 13.9998 15.9554 11.9104 15.9554 9.3331C15.9554 6.75577 13.8661 4.66643 11.2887 4.66643C8.71141 4.66643 6.62207 6.75577 6.62207 9.3331C6.62207 11.9104 8.71141 13.9998 11.2887 13.9998Z" fill="white"/>
<path fill-rule="evenodd" clip-rule="evenodd" d="M18.289 13.9998C20.8673 13.9998 22.9556 11.9114 22.9556 9.3331C22.9556 6.75476 20.8673 4.66643 18.289 4.66643C17.7406 4.66643 17.2273 4.7831 16.7373 4.94643C17.7056 6.1481 18.289 7.67643 18.289 9.3331C18.289 10.9898 17.7056 12.5181 16.7373 13.7198C17.2273 13.8831 17.7406 13.9998 18.289 13.9998Z" fill="white"/>
<path fill-rule="evenodd" clip-rule="evenodd" d="M11.2889 15.1665C8.1739 15.1665 1.95557 16.7298 1.95557 19.8331V22.1665C1.95557 22.8081 2.48057 23.3331 3.12223 23.3331H19.4556C20.0972 23.3331 20.6222 22.8081 20.6222 22.1665V19.8331C20.6222 16.7298 14.4039 15.1665 11.2889 15.1665Z" fill="white"/>
</svg>
