<svg width="25" height="24" viewBox="0 0 25 24" fill="none" xmlns="http://www.w3.org/2000/svg">
<path d="M12.7891 2C8.36906 2 4.78906 2.5 4.78906 6V16C4.78906 16.88 5.17906 17.67 5.78906 18.22V20C5.78906 20.55 6.23906 21 6.78906 21H7.78906C8.33906 21 8.78906 20.55 8.78906 20V19H16.7891V20C16.7891 20.55 17.2391 21 17.7891 21H18.7891C19.3391 21 19.7891 20.55 19.7891 20V18.22C20.3991 17.67 20.7891 16.88 20.7891 16V6C20.7891 2.5 17.2091 2 12.7891 2ZM18.4491 4.99H7.12906C7.67906 4.46 9.09906 4 12.7891 4C16.4791 4 17.8991 4.46 18.4491 4.99ZM18.7891 6.99V10H6.78906V6.99H18.7891ZM18.4491 16.73L18.1591 17H7.41906L7.12906 16.73C6.99906 16.62 6.78906 16.37 6.78906 16V12H18.7891V16C18.7891 16.37 18.5791 16.62 18.4491 16.73Z" fill="#4318FF"/>
<path d="M9.28906 16C10.1175 16 10.7891 15.3284 10.7891 14.5C10.7891 13.6716 10.1175 13 9.28906 13C8.46064 13 7.78906 13.6716 7.78906 14.5C7.78906 15.3284 8.46064 16 9.28906 16Z" fill="#4318FF"/>
<path d="M16.2891 16C17.1175 16 17.7891 15.3284 17.7891 14.5C17.7891 13.6716 17.1175 13 16.2891 13C15.4606 13 14.7891 13.6716 14.7891 14.5C14.7891 15.3284 15.4606 16 16.2891 16Z" fill="#4318FF"/>
</svg>
