<svg width="92" height="91" viewBox="0 0 92 91" fill="none" xmlns="http://www.w3.org/2000/svg">
<path d="M68.3184 16.9488C68.0151 16.9488 67.7118 16.8729 67.4463 16.7213C60.1663 12.9675 53.8722 11.375 46.3268 11.375C38.8193 11.375 31.6909 13.1571 25.2072 16.7213C24.2972 17.2142 23.1597 16.8729 22.6288 15.9629C22.1359 15.0529 22.4772 13.8775 23.3872 13.3846C30.4397 9.555 38.1747 7.58334 46.3268 7.58334C54.403 7.58334 61.4555 9.36542 69.1905 13.3467C70.1384 13.8396 70.4797 14.9771 69.9867 15.8871C69.6455 16.5696 69.0009 16.9488 68.3184 16.9488ZM14.0597 36.855C13.6805 36.855 13.3013 36.7413 12.9601 36.5138C12.088 35.9071 11.8984 34.7317 12.5051 33.8596C16.2588 28.5513 21.0363 24.3804 26.7238 21.4608C38.6297 15.3183 53.8722 15.2804 65.8159 21.4229C71.5034 24.3425 76.2809 28.4754 80.0347 33.7458C80.6413 34.58 80.4518 35.7933 79.5797 36.4C78.7076 37.0067 77.5322 36.8171 76.9255 35.945C73.513 31.1675 69.1905 27.4138 64.0718 24.7975C53.1897 19.2238 39.2743 19.2238 28.4301 24.8354C23.2734 27.4896 18.9509 31.2813 15.5384 36.0588C15.2351 36.5896 14.6663 36.855 14.0597 36.855ZM37.7576 82.6204C37.2647 82.6204 36.7717 82.4308 36.4305 82.0517C33.1318 78.7529 31.3497 76.6296 28.8092 72.0417C26.193 67.3779 24.828 61.6904 24.828 55.5858C24.828 44.3246 34.4588 35.1488 46.2888 35.1488C58.1188 35.1488 67.7497 44.3246 67.7497 55.5858C67.7497 56.6475 66.9155 57.4817 65.8538 57.4817C64.7922 57.4817 63.958 56.6475 63.958 55.5858C63.958 46.41 56.0334 38.9404 46.2888 38.9404C36.5442 38.9404 28.6197 46.41 28.6197 55.5858C28.6197 61.0458 29.833 66.0888 32.1459 70.1838C34.5726 74.5442 36.2409 76.4021 39.1605 79.3596C39.8809 80.1179 39.8809 81.2933 39.1605 82.0517C38.7434 82.4308 38.2505 82.6204 37.7576 82.6204ZM64.9438 75.6058C60.4318 75.6058 56.4505 74.4683 53.1897 72.2313C47.5401 68.4017 44.1655 62.1833 44.1655 55.5858C44.1655 54.5242 44.9997 53.69 46.0613 53.69C47.123 53.69 47.9572 54.5242 47.9572 55.5858C47.9572 60.9321 50.6872 65.975 55.313 69.0842C58.0051 70.9042 61.1522 71.7763 64.9438 71.7763C65.8538 71.7763 67.3705 71.6625 68.8872 71.3971C69.9109 71.2075 70.8968 71.89 71.0863 72.9517C71.2759 73.9754 70.5934 74.9613 69.5317 75.1508C67.3705 75.5679 65.4747 75.6058 64.9438 75.6058ZM57.3226 83.4167C57.1709 83.4167 56.9813 83.3788 56.8297 83.3408C50.8009 81.6725 46.8576 79.4354 42.7247 75.3783C37.4163 70.1079 34.4968 63.0933 34.4968 55.5858C34.4968 49.4433 39.7292 44.4383 46.1751 44.4383C52.6209 44.4383 57.8534 49.4433 57.8534 55.5858C57.8534 59.6429 61.3797 62.9417 65.7401 62.9417C70.1005 62.9417 73.6267 59.6429 73.6267 55.5858C73.6267 41.2913 61.3038 29.6888 46.1372 29.6888C35.3688 29.6888 25.5105 35.6796 21.0742 44.9692C19.5955 48.0404 18.8372 51.6425 18.8372 55.5858C18.8372 58.5433 19.1026 63.2071 21.3776 69.2738C21.7567 70.2596 21.2638 71.3592 20.278 71.7004C19.2922 72.0796 18.1926 71.5488 17.8513 70.6008C15.9934 65.6338 15.0834 60.7046 15.0834 55.5858C15.0834 51.0358 15.9555 46.9029 17.6617 43.3008C22.7047 32.7221 33.8901 25.8592 46.1372 25.8592C63.3893 25.8592 77.4184 39.1679 77.4184 55.5479C77.4184 61.6904 72.1859 66.6954 65.7401 66.6954C59.2942 66.6954 54.0617 61.6904 54.0617 55.5479C54.0617 51.4908 50.5355 48.1921 46.1751 48.1921C41.8147 48.1921 38.2884 51.4908 38.2884 55.5479C38.2884 62.0317 40.7909 68.0983 45.3788 72.6483C48.9809 76.2125 52.4313 78.1842 57.7776 79.6629C58.8013 79.9283 59.3701 80.99 59.1047 81.9758C58.9151 82.8479 58.1188 83.4167 57.3226 83.4167Z" fill="#4318FF"/>
</svg>
