<svg width="11" height="15" viewBox="0 0 11 15" fill="none" xmlns="http://www.w3.org/2000/svg">
<path d="M5.78906 0.429688C2.96971 0.429688 0.689453 2.70994 0.689453 5.5293C0.689453 9.354 5.78906 15 5.78906 15C5.78906 15 10.8887 9.354 10.8887 5.5293C10.8887 2.70994 8.60842 0.429688 5.78906 0.429688ZM2.14648 5.5293C2.14648 3.51859 3.77836 1.88672 5.78906 1.88672C7.79977 1.88672 9.43164 3.51859 9.43164 5.5293C9.43164 7.62742 7.33352 10.7673 5.78906 12.727C4.27375 10.7819 2.14648 7.60557 2.14648 5.5293Z" fill="#A3AED0"/>
<path d="M5.78906 7.34998C6.79493 7.34998 7.61035 6.53456 7.61035 5.52869C7.61035 4.52282 6.79493 3.7074 5.78906 3.7074C4.78319 3.7074 3.96777 4.52282 3.96777 5.52869C3.96777 6.53456 4.78319 7.34998 5.78906 7.34998Z" fill="#A3AED0"/>
</svg>
