<svg width="143" height="44" viewBox="0 0 143 44" fill="none" xmlns="http://www.w3.org/2000/svg">
<path d="M61.624 31.66C62.512 31.66 63.288 31.832 63.952 32.176C64.624 32.512 65.14 33 65.5 33.64C65.868 34.272 66.052 35.012 66.052 35.86C66.052 36.708 65.868 37.444 65.5 38.068C65.14 38.692 64.624 39.172 63.952 39.508C63.288 39.836 62.512 40 61.624 40H58.9V31.66H61.624ZM61.624 38.884C62.6 38.884 63.348 38.62 63.868 38.092C64.388 37.564 64.648 36.82 64.648 35.86C64.648 34.892 64.388 34.136 63.868 33.592C63.348 33.048 62.6 32.776 61.624 32.776H60.268V38.884H61.624ZM72.4358 38.296H68.9438L68.3438 40H66.9158L69.9038 31.648H71.4878L74.4758 40H73.0358L72.4358 38.296ZM72.0518 37.18L70.6958 33.304L69.3278 37.18H72.0518ZM78.523 40.084C77.963 40.084 77.459 39.988 77.011 39.796C76.563 39.596 76.211 39.316 75.955 38.956C75.699 38.596 75.571 38.176 75.571 37.696H77.035C77.067 38.056 77.207 38.352 77.455 38.584C77.711 38.816 78.067 38.932 78.523 38.932C78.995 38.932 79.363 38.82 79.627 38.596C79.891 38.364 80.023 38.068 80.023 37.708C80.023 37.428 79.939 37.2 79.771 37.024C79.611 36.848 79.407 36.712 79.159 36.616C78.919 36.52 78.583 36.416 78.151 36.304C77.607 36.16 77.163 36.016 76.819 35.872C76.483 35.72 76.195 35.488 75.955 35.176C75.715 34.864 75.595 34.448 75.595 33.928C75.595 33.448 75.715 33.028 75.955 32.668C76.195 32.308 76.531 32.032 76.963 31.84C77.395 31.648 77.895 31.552 78.463 31.552C79.271 31.552 79.931 31.756 80.443 32.164C80.963 32.564 81.251 33.116 81.307 33.82H79.795C79.771 33.516 79.627 33.256 79.363 33.04C79.099 32.824 78.751 32.716 78.319 32.716C77.927 32.716 77.607 32.816 77.359 33.016C77.111 33.216 76.987 33.504 76.987 33.88C76.987 34.136 77.063 34.348 77.215 34.516C77.375 34.676 77.575 34.804 77.815 34.9C78.055 34.996 78.383 35.1 78.799 35.212C79.351 35.364 79.799 35.516 80.143 35.668C80.495 35.82 80.791 36.056 81.031 36.376C81.279 36.688 81.403 37.108 81.403 37.636C81.403 38.06 81.287 38.46 81.055 38.836C80.831 39.212 80.499 39.516 80.059 39.748C79.627 39.972 79.115 40.084 78.523 40.084ZM89.6772 31.66V40H88.3092V36.352H84.3852V40H83.0172V31.66H84.3852V35.236H88.3092V31.66H89.6772ZM95.9421 35.716C96.3901 35.796 96.7701 36.032 97.0821 36.424C97.3941 36.816 97.5501 37.26 97.5501 37.756C97.5501 38.18 97.4381 38.564 97.2141 38.908C96.9981 39.244 96.6821 39.512 96.2661 39.712C95.8501 39.904 95.3661 40 94.8141 40H91.4781V31.66H94.6581C95.2261 31.66 95.7141 31.756 96.1221 31.948C96.5301 32.14 96.8381 32.4 97.0461 32.728C97.2541 33.048 97.3581 33.408 97.3581 33.808C97.3581 34.288 97.2301 34.688 96.9741 35.008C96.7181 35.328 96.3741 35.564 95.9421 35.716ZM92.8461 35.164H94.5381C94.9861 35.164 95.3341 35.064 95.5821 34.864C95.8381 34.656 95.9661 34.36 95.9661 33.976C95.9661 33.6 95.8381 33.308 95.5821 33.1C95.3341 32.884 94.9861 32.776 94.5381 32.776H92.8461V35.164ZM94.6941 38.884C95.1581 38.884 95.5221 38.772 95.7861 38.548C96.0501 38.324 96.1821 38.012 96.1821 37.612C96.1821 37.204 96.0421 36.88 95.7621 36.64C95.4821 36.4 95.1101 36.28 94.6461 36.28H92.8461V38.884H94.6941ZM102.841 40.084C102.065 40.084 101.349 39.904 100.693 39.544C100.045 39.176 99.5287 38.668 99.1447 38.02C98.7687 37.364 98.5807 36.628 98.5807 35.812C98.5807 34.996 98.7687 34.264 99.1447 33.616C99.5287 32.968 100.045 32.464 100.693 32.104C101.349 31.736 102.065 31.552 102.841 31.552C103.625 31.552 104.341 31.736 104.989 32.104C105.645 32.464 106.161 32.968 106.537 33.616C106.913 34.264 107.101 34.996 107.101 35.812C107.101 36.628 106.913 37.364 106.537 38.02C106.161 38.668 105.645 39.176 104.989 39.544C104.341 39.904 103.625 40.084 102.841 40.084ZM102.841 38.896C103.393 38.896 103.885 38.772 104.317 38.524C104.749 38.268 105.085 37.908 105.325 37.444C105.573 36.972 105.697 36.428 105.697 35.812C105.697 35.196 105.573 34.656 105.325 34.192C105.085 33.728 104.749 33.372 104.317 33.124C103.885 32.876 103.393 32.752 102.841 32.752C102.289 32.752 101.797 32.876 101.365 33.124C100.933 33.372 100.593 33.728 100.345 34.192C100.105 34.656 99.9847 35.196 99.9847 35.812C99.9847 36.428 100.105 36.972 100.345 37.444C100.593 37.908 100.933 38.268 101.365 38.524C101.797 38.772 102.289 38.896 102.841 38.896ZM113.475 38.296H109.983L109.383 40H107.955L110.943 31.648H112.527L115.515 40H114.075L113.475 38.296ZM113.091 37.18L111.735 33.304L110.367 37.18H113.091ZM121.146 40L119.226 36.664H118.182V40H116.814V31.66H119.694C120.334 31.66 120.874 31.772 121.314 31.996C121.762 32.22 122.094 32.52 122.31 32.896C122.534 33.272 122.646 33.692 122.646 34.156C122.646 34.7 122.486 35.196 122.166 35.644C121.854 36.084 121.37 36.384 120.714 36.544L122.778 40H121.146ZM118.182 35.572H119.694C120.206 35.572 120.59 35.444 120.846 35.188C121.11 34.932 121.242 34.588 121.242 34.156C121.242 33.724 121.114 33.388 120.858 33.148C120.602 32.9 120.214 32.776 119.694 32.776H118.182V35.572ZM127.12 31.66C128.008 31.66 128.784 31.832 129.448 32.176C130.12 32.512 130.636 33 130.996 33.64C131.364 34.272 131.548 35.012 131.548 35.86C131.548 36.708 131.364 37.444 130.996 38.068C130.636 38.692 130.12 39.172 129.448 39.508C128.784 39.836 128.008 40 127.12 40H124.396V31.66H127.12ZM127.12 38.884C128.096 38.884 128.844 38.62 129.364 38.092C129.884 37.564 130.144 36.82 130.144 35.86C130.144 34.892 129.884 34.136 129.364 33.592C128.844 33.048 128.096 32.776 127.12 32.776H125.764V38.884H127.12Z" fill="#4318FF"/>
<path d="M74.746 6.748L68.272 25H62.708L56.234 6.748H60.966L65.49 20.528L70.04 6.748H74.746ZM81.0502 10.31V14.002H87.0042V17.434H81.0502V21.438H87.7842V25H76.6042V6.748H87.7842V10.31H81.0502ZM106.999 25H102.553L95.1166 13.742V25H90.6706V6.748H95.1166L102.553 18.058V6.748H106.999V25ZM114.589 6.748V17.668C114.589 18.76 114.858 19.6007 115.395 20.19C115.933 20.7793 116.721 21.074 117.761 21.074C118.801 21.074 119.599 20.7793 120.153 20.19C120.708 19.6007 120.985 18.76 120.985 17.668V6.748H125.431V17.642C125.431 19.2713 125.085 20.6493 124.391 21.776C123.698 22.9027 122.762 23.752 121.583 24.324C120.422 24.896 119.122 25.182 117.683 25.182C116.245 25.182 114.953 24.9047 113.809 24.35C112.683 23.778 111.79 22.9287 111.131 21.802C110.473 20.658 110.143 19.2713 110.143 17.642V6.748H114.589ZM135.157 25.182C133.823 25.182 132.627 24.9653 131.569 24.532C130.512 24.0987 129.663 23.4573 129.021 22.608C128.397 21.7587 128.068 20.736 128.033 19.54H132.765C132.835 20.216 133.069 20.736 133.467 21.1C133.866 21.4467 134.386 21.62 135.027 21.62C135.686 21.62 136.206 21.4727 136.587 21.178C136.969 20.866 137.159 20.4413 137.159 19.904C137.159 19.4533 137.003 19.0807 136.691 18.786C136.397 18.4913 136.024 18.2487 135.573 18.058C135.14 17.8673 134.516 17.6507 133.701 17.408C132.523 17.044 131.561 16.68 130.815 16.316C130.07 15.952 129.429 15.4147 128.891 14.704C128.354 13.9933 128.085 13.066 128.085 11.922C128.085 10.2233 128.701 8.89733 129.931 7.944C131.162 6.97333 132.765 6.488 134.741 6.488C136.752 6.488 138.373 6.97333 139.603 7.944C140.834 8.89733 141.493 10.232 141.579 11.948H136.769C136.735 11.3587 136.518 10.8993 136.119 10.57C135.721 10.2233 135.209 10.05 134.585 10.05C134.048 10.05 133.615 10.1973 133.285 10.492C132.956 10.7693 132.791 11.1767 132.791 11.714C132.791 12.3033 133.069 12.7627 133.623 13.092C134.178 13.4213 135.045 13.7767 136.223 14.158C137.402 14.5567 138.355 14.938 139.083 15.302C139.829 15.666 140.47 16.1947 141.007 16.888C141.545 17.5813 141.813 18.474 141.813 19.566C141.813 20.606 141.545 21.5507 141.007 22.4C140.487 23.2493 139.725 23.9253 138.719 24.428C137.714 24.9307 136.527 25.182 135.157 25.182Z" fill="#4318FF"/>
<rect width="44" height="44" rx="10" fill="#4318FF"/>
<path d="M22.0004 7.69994C16.2804 7.69994 11.143 11.0896 8.86562 16.3329C8.7597 16.5977 8.86562 16.9155 9.13044 17.0214C9.39525 17.1273 9.71303 17.0214 9.81896 16.7566C10.9841 14.1085 12.9438 11.937 15.3271 10.5599C14.5856 11.3014 13.9501 12.2018 13.4734 13.1551C13.2615 13.5788 13.3145 14.1085 13.6323 14.4262C14.109 14.9559 15.0093 14.691 15.2741 14.4262C15.486 14.2144 15.433 13.9496 15.2741 13.6848C15.0093 13.261 14.4267 13.6848 14.4267 13.6848C14.4267 13.6848 15.3801 10.8777 19.0345 9.07697C19.6701 8.91808 20.2527 8.86512 20.8882 8.81216C20.3586 9.34179 19.776 9.81845 19.0875 10.2422C19.0875 10.2422 16.6512 11.7251 16.2804 12.0429C16.0686 12.2548 16.0686 12.5196 16.2275 12.7844C16.4923 13.1551 16.863 12.9433 16.969 12.8373C17.3397 12.5725 19.6701 11.1425 19.6701 11.1425C21.0471 10.5599 22.4771 8.81216 22.4771 8.81216C24.8604 8.91808 27.0849 9.6066 28.9915 10.8248L27.6675 12.1488C26.873 12.9433 26.1845 13.4729 25.496 13.8436C23.7482 14.8499 22.3712 16.3329 21.4708 18.1336C21.259 18.5573 21.3119 19.087 21.6297 19.4047C22.1593 19.8814 23.0067 19.6696 23.2716 19.4047L24.1719 18.5044C24.3838 18.2925 24.3838 17.9747 24.1719 17.7629C23.9601 17.551 23.6423 17.551 23.4304 17.7629L22.4241 18.6633C22.4241 18.6633 23.2715 16.227 26.0256 14.744C26.8201 14.3203 27.5615 13.6848 28.409 12.8373L29.8919 11.3544C30.1567 11.5662 30.4215 11.7781 30.6864 11.9899L29.0445 13.6318C28.409 14.2144 27.8264 14.744 27.1378 15.1677L25.6019 16.0681C25.3371 16.227 25.2312 16.5448 25.3901 16.8096C25.6019 17.1803 26.0256 17.0744 26.1315 17.0214L27.6675 16.121C28.4619 15.6444 29.1504 15.0618 29.786 14.4262L31.4808 12.7314C31.8515 13.1022 32.1693 13.4729 32.4871 13.8436L27.8264 18.5044C26.6612 19.6696 25.7608 20.9936 25.1782 22.4236C24.5427 23.9066 23.6953 25.3366 22.583 26.6607C22.3712 26.8725 22.4241 27.1903 22.636 27.4022C22.9008 27.667 23.2715 27.4551 23.3775 27.3492C24.5427 25.9722 25.443 24.4362 26.1315 22.8473C26.6612 21.5233 27.4556 20.3581 28.5678 19.2459L33.1227 14.691C33.7582 15.6444 34.2349 16.6507 34.6056 17.7099L32.2223 20.1462C31.216 20.9407 30.3156 22.8473 30.3156 22.8473C29.6271 24.0125 28.6208 25.0188 27.4556 25.7073C26.1845 26.5018 24.9664 27.4022 23.9601 28.4085L22.4771 29.8914C22.2653 30.1033 21.9475 30.1033 21.7356 29.8914C21.6297 29.7855 21.4708 29.4677 21.7356 29.1499C21.9475 28.9381 21.9475 28.6203 21.7356 28.4085C21.5238 28.1966 21.153 28.1966 20.9941 28.4085C20.0938 29.4677 20.6764 30.3151 20.9941 30.6329C21.8415 31.4803 22.9008 30.9507 23.2186 30.6329L24.7015 29.1499C25.6549 28.1966 26.7671 27.2962 27.9853 26.5547C29.3093 25.7603 30.3686 24.6481 31.163 23.377C31.163 23.377 32.0104 21.6292 32.9638 20.8877L34.9234 18.8751C35.1353 19.8814 35.2412 20.9407 35.2412 21.9999C35.2412 28.3025 30.7923 33.5988 24.9134 34.9229C25.1782 34.711 25.443 34.5522 25.7078 34.3933C25.9727 34.2344 26.0256 33.9166 25.8667 33.6518C25.7078 33.387 25.3901 33.334 25.1253 33.4929C24.119 34.0225 22.9008 35.2407 22.9008 35.2407C22.583 35.2407 21.6297 35.2936 21.4708 35.2407L22.2123 34.4992C22.9008 33.8107 23.4834 33.387 24.119 33.0162L25.6549 32.1159C26.5023 31.6392 27.1908 31.0566 27.7734 30.421C27.7734 30.421 28.7267 29.4677 28.7797 29.5207C28.7797 29.5207 27.7734 31.2685 27.1378 31.957C26.926 32.1688 26.926 32.4866 27.1378 32.6985C27.3497 32.9103 27.6675 32.9103 27.8793 32.6985C28.6208 31.904 29.2564 31.0566 29.733 30.0503C29.9449 29.6266 29.839 29.097 29.5741 28.7792C28.9915 28.3025 28.1971 28.5144 27.9323 28.7792L27.0319 29.6796C26.5023 30.2622 25.8667 30.7388 25.1253 31.1625L23.5893 32.0629C22.8478 32.4866 22.2123 33.0162 21.4708 33.7577L20.0938 35.0818C17.7104 34.764 15.539 33.7577 13.7382 32.3277L15.2741 30.7918C16.0686 29.9973 16.7571 29.4677 17.4456 29.097C19.1934 28.0907 20.5704 26.6077 21.4708 24.807C21.6827 24.3833 21.6827 23.8536 21.259 23.4829C21.0471 23.271 20.1467 23.0062 19.6701 23.4829L18.7697 24.3833C18.2401 24.9659 17.6045 25.4425 16.863 25.8662L15.3271 26.7666C14.4797 27.2433 13.7912 27.8259 13.2086 28.4614L11.5667 30.1033C11.3019 29.7325 11.0371 29.4147 10.8253 29.044L15.3801 24.4892C16.5982 23.2181 17.4456 21.894 18.0282 20.517C18.8227 18.5573 20.0408 16.7566 21.6297 15.1677L22.2123 14.5851C22.5301 14.2673 22.9538 13.1022 22.2123 12.3607C21.5767 11.7251 20.6234 11.7251 19.9878 12.3607L18.5049 13.8436C17.5515 14.797 16.4393 15.6973 15.2212 16.4388C13.8441 17.2862 12.7849 18.3455 12.0434 19.6166C12.0434 19.6166 11.0901 21.6292 10.2956 22.1059L8.97155 23.4299C8.81266 23.0062 8.7597 22.5296 8.7597 21.9999C8.7597 21.6822 8.54785 21.4703 8.23007 21.4703C7.91229 21.4703 7.70044 21.6822 7.70044 21.9999C7.70044 29.8914 14.109 36.2999 22.0004 36.2999C29.8919 36.2999 36.3004 29.8914 36.3004 21.9999C36.3004 14.1085 29.8919 7.69994 22.0004 7.69994ZM9.07748 24.807L10.9312 22.9533C12.0434 22.0529 12.8908 20.2522 12.8908 20.2522C13.5793 19.087 14.5327 18.1336 15.7508 17.3922C17.0219 16.5977 18.2401 15.6973 19.2464 14.691L20.7293 13.2081C20.9412 12.9962 21.206 12.9962 21.4708 13.2081C21.7886 13.4729 21.5767 13.8436 21.4708 13.9496L20.8882 14.5322C19.1934 16.227 17.9223 18.1336 17.0749 20.1992C16.5453 21.4703 15.7508 22.6885 14.6386 23.8536L10.2956 28.1966C9.71303 27.0844 9.28933 25.9722 9.07748 24.807ZM12.2553 30.9507L13.9501 29.2559C14.4797 28.6733 15.1153 28.1966 15.8567 27.7729L17.3927 26.8725C18.2401 26.3959 18.9286 25.8133 19.5112 25.1777C19.5112 25.1777 20.4645 24.2773 20.5175 24.2773C20.5175 24.2773 18.4519 27.3492 16.916 28.1966C16.1215 28.6203 15.3801 29.2559 14.5327 30.1033L12.9438 31.6922C12.7319 31.4273 12.4671 31.2155 12.2553 30.9507Z" fill="white"/>
<path d="M7.8612 18.6612C7.81016 18.8258 7.75911 19.0232 7.70807 19.2207C7.65703 19.3853 7.8612 19.5827 8.11642 19.6156C8.16747 19.6156 8.62686 19.6485 8.72895 19.3523C8.77999 19.1878 8.83104 19.0232 8.88208 18.8587C8.93313 18.6942 8.77999 18.4967 8.52477 18.4638C8.21851 18.3651 7.91225 18.4638 7.8612 18.6612Z" fill="white"/>
</svg>
